<?xml version="1.0" encoding="UTF-8" standalone="no"?>
<svg
   version="1.1"
   width="1081px"
   height="1081px"
   style="shape-rendering:geometricPrecision; text-rendering:geometricPrecision; image-rendering:optimizeQuality; fill-rule:evenodd; clip-rule:evenodd"
   id="svg2"
   sodipodi:docname="logo.svg"
   inkscape:version="1.3.2 (091e20ef0f, 2023-11-25)"
   xmlns:inkscape="http://www.inkscape.org/namespaces/inkscape"
   xmlns:sodipodi="http://sodipodi.sourceforge.net/DTD/sodipodi-0.dtd"
   xmlns="http://www.w3.org/2000/svg"
   xmlns:svg="http://www.w3.org/2000/svg">
  <defs
     id="defs2" />
  <sodipodi:namedview
     id="namedview2"
     pagecolor="#ffffff"
     bordercolor="#000000"
     borderopacity="0.25"
     inkscape:showpageshadow="2"
     inkscape:pageopacity="0.0"
     inkscape:pagecheckerboard="0"
     inkscape:deskcolor="#d1d1d1"
     inkscape:zoom="0.74560592"
     inkscape:cx="540.5"
     inkscape:cy="540.5"
     inkscape:window-width="1920"
     inkscape:window-height="1004"
     inkscape:window-x="0"
     inkscape:window-y="0"
     inkscape:window-maximized="1"
     inkscape:current-layer="svg2" />
  <g
     id="g1"
     transform="matrix(2,0,0,2,-540.49987,-539.97456)">
    <path
       style="opacity:0.955"
       fill="#afc581"
       d="m 468.5,386.5 c 11.714,-0.361 23.381,0.139 35,1.5 27.721,6.912 40.721,24.746 39,53.5 0.088,5.414 -0.412,10.748 -1.5,16 0.103,-12.686 -3.23,-24.352 -10,-35 -7.68,-8.425 -17.18,-13.591 -28.5,-15.5 -13.625,-2.53 -27.292,-2.863 -41,-1 -27.801,4.127 -55.468,8.961 -83,14.5 0.727,88.658 1.394,177.324 2,266 -11.333,0 -22.667,0 -34,0 0,-86.667 0,-173.333 0,-260 -16.746,1.73 -33.413,1.23 -50,-1.5 -7.821,-2.158 -14.655,-5.992 -20.5,-11.5 -0.667,-0.667 -0.667,-1.333 0,-2 7.089,4.921 14.922,8.087 23.5,9.5 12.701,0.821 25.368,0.488 38,-1 32.624,-7.573 64.957,-16.239 97,-26 11.397,-2.853 22.731,-5.353 34,-7.5 z"
       id="path1" />
  </g>
  <g
     id="g2"
     transform="matrix(2,0,0,2,-540.49987,-539.97456)">
    <path
       style="opacity:0.956"
       fill="#afc581"
       d="m 669.5,396.5 c 4.852,-1.223 8.019,0.444 9.5,5 41.782,97.349 83.948,194.515 126.5,291.5 -12.667,0.667 -25.333,0.667 -38,0 -5.629,-12.092 -11.129,-24.259 -16.5,-36.5 -18.202,-31.362 -43.702,-54.862 -76.5,-70.5 -35.202,-14.482 -63.702,-6.315 -85.5,24.5 9.572,-24.158 27.572,-36.825 54,-38 27.899,2.703 52.399,13.203 73.5,31.5 7.167,5.833 13.667,12.333 19.5,19.5 -25.385,-60.787 -51.385,-121.454 -78,-182 -25.934,60.453 -52.267,120.786 -79,181 -6.349,14.728 -10.182,30.061 -11.5,46 0.273,7.094 2.107,13.76 5.5,20 2.556,0.719 3.723,2.386 3.5,5 -12.005,0.167 -24.005,0 -36,-0.5 17.357,-39.067 34.524,-78.233 51.5,-117.5 0.927,-8.645 1.427,-17.311 1.5,-26 -40.015,0.5 -80.015,1.167 -120,2 0,45 0,90 0,135 -11.333,0 -22.667,0 -34,0 0,-90.333 0,-180.667 0,-271 11,0 22,0 33,0 0.739,42.663 1.072,85.329 1,128 32.335,0.167 64.668,0 97,-0.5 7.688,-0.169 15.355,-0.669 23,-1.5 0.995,-43.958 1.328,-87.958 1,-132 11,0 22,0 33,0 -1.9,31.33 -3.4,62.663 -4.5,94 15.515,-35.693 31.015,-71.359 46.5,-107 z"
       id="path2" />
  </g>
</svg>
